# xmcd
# 
# Track frame offsets:
#     150
#     19347
#     36455
#     53350
#     70032
#     87190
#     105745
#     122655
#     139355
#     160112
#     176832
#     192350
#     210892
#     225592
#     238870
#     259182
#     277335
#     297292
#     315925
#     337052
# 
# Disc length: 4685
# 
# Revision: 4
# Processed by: cddbd v1.5.2PL0 Copyright (c) Steve Scherf et al.
# Submitted via: BonkEnc v1.0
# 
DISCID=27124b14
DTITLE=Various Artist - 100% Pure Groove [CD 1/2)
DYEAR=0
DGENRE=Disco
TTITLE0=Rufus And Chaka Khan - Ain't Nobody
TTITLE1=Jocelyn Brown - Somebody Else's Guy
TTITLE2=Mary Jane Girls - All Night Long
TTITLE3=Loose Ends - Hangin' On A String
TTITLE4=Luther Vandross - Never To Much
TTITLE5=The Fatback Band - I Found Lovin'
TTITLE6=Cameo - She's Strange
TTITLE7=Mtume - Juicy Fruit
TTITLE8=Earth Wind and Fire - Let's Groove
TTITLE9=Kool and The Gang - Too Hot
TTITLE10=Tom Browne - Funkin' For Jamaica
TTITLE11=Gwen McCrae - All This Love That I'm Giving
TTITLE12=Maceo And The Macks - 'Cross The Track (We Better Go Back)
TTITLE13=Jackson Sisters - I Believe In Miracles (7" Version)
TTITLE14=Maze - Joy And Pain
TTITLE15=Dennis Edwards Feat. Siedah Garrett - Don't Look Any Further
TTITLE16=Shalamar - There It Is
TTITLE17=Yarbrough and Peoples - Don't Stop The Music
TTITLE18=Sister Sledge - Lost In Music
TTITLE19=Stock Aitken and Waterman - Roadblock
EXTD=
EXTT0=
EXTT1=
EXTT2=
EXTT3=
EXTT4=
EXTT5=
EXTT6=
EXTT7=
EXTT8=
EXTT9=
EXTT10=
EXTT11=
EXTT12=
EXTT13=
EXTT14=
EXTT15=
EXTT16=
EXTT17=
EXTT18=
EXTT19=
PLAYORDER=
